# xmcd
#
# Track frame offsets: 
#        150
#        21485
#        44078
#        67685
#        77897
#        112114
#        147338
#        163039
#        189721
#        202724
#        227558
#        248194
#
# Disc length: 3637 seconds
#
# Revision: 1
# Processed by: cddbd v1.5.2PL0 Copyright (c) Steve Scherf et al.
# Submitted via: ExactAudioCopy v0.95a4
#
DISCID=a60e330c
DTITLE=Southern Hospitality - Easy Livin'
DYEAR=2013
DGENRE=Blues
TTITLE0=Southern Livin'
TTITLE1=Long Way Home
TTITLE2=Kind Lies and Whiskey
TTITLE3=Mile After Mile
TTITLE4=Certified Lover
TTITLE5=Fried Neck Bones And Home Fries
TTITLE6=Shoestring Budget
TTITLE7=Don't Feel Like Going There Today
TTITLE8=Come Back Home
TTITLE9=Powered For The Mountain
TTITLE10=Don't Boogie Woogie
TTITLE11=Sky Is What I Breathe
EXTD=Year: 2013\n\n\n\n\n\n                                           
EXTD=www.southernhospitalityband.com
EXTT0=
EXTT1=
EXTT2=
EXTT3=
EXTT4=
EXTT5=
EXTT6=
EXTT7=
EXTT8=
EXTT9=
EXTT10=
EXTT11=
PLAYORDER=
